<?xml version="1.0" standalone="no"?>
<!DOCTYPE svg PUBLIC "-//W3C//DTD SVG 20010904//EN"
 "http://www.w3.org/TR/2001/REC-SVG-20010904/DTD/svg10.dtd">
<svg version="1.0" xmlns="http://www.w3.org/2000/svg"
 width="446.000000pt" height="446.000000pt" viewBox="0 0 446.000000 446.000000"
 preserveAspectRatio="xMidYMid meet">
<metadata>
Created by potrace 1.14, written by Peter Selinger 2001-2017
</metadata>
<g transform="translate(0.000000,446.000000) scale(0.100000,-0.100000)"
fill="#000000" stroke="none">
<path d="M2743 3597 c-3 -5 -11 -30 -18 -55 -7 -26 -33 -117 -58 -202 -105
-359 -197 -674 -287 -985 -43 -148 -101 -348 -129 -444 -28 -96 -51 -175 -51
-177 0 -1 454 -2 1008 -1 l1009 2 37 29 c76 57 72 8 71 913 0 850 1 826 -44
877 -45 52 -20 50 -804 51 -409 0 -731 -3 -734 -8z m268 -331 c52 -24 126 -58
164 -75 39 -18 255 -117 480 -220 l410 -187 2 -112 2 -112 -77 -36 c-42 -20
-207 -96 -367 -169 -159 -73 -321 -147 -360 -165 -129 -60 -310 -142 -341
-156 l-31 -13 1 127 c1 124 1 126 26 139 29 15 96 44 235 103 55 23 116 49
135 57 36 16 109 48 145 63 11 5 98 43 194 84 l174 74 -29 15 c-16 7 -218 94
-449 193 -231 98 -423 183 -426 187 -4 5 -7 63 -6 128 0 86 3 119 12 119 7 0
55 -20 106 -44z"/>
<path d="M218 2619 c-59 -9 -81 -21 -115 -66 l-28 -36 -3 -819 c-3 -913 -6
-861 66 -916 l35 -27 741 -3 741 -2 47 162 c64 222 222 766 274 943 8 28 16
57 18 65 2 8 47 161 99 340 53 179 97 334 99 344 3 18 -21 19 -963 20 -531 1
-986 -2 -1011 -5z m1283 -419 c0 -68 -2 -124 -4 -125 -1 -1 -175 -77 -387
-169 -212 -93 -403 -177 -426 -187 -22 -10 -46 -19 -52 -19 -7 0 -12 -4 -12
-10 0 -11 -4 -10 493 -225 l387 -169 1 -76 c1 -101 0 -172 -4 -176 -1 -2 -57
22 -122 52 -66 31 -138 64 -160 74 -22 10 -141 65 -265 122 -124 58 -258 120
-299 139 -41 19 -129 59 -195 90 l-121 56 -3 106 c-3 120 -10 108 93 153 53
23 257 117 439 203 59 28 110 51 111 51 2 0 63 28 136 63 74 35 168 79 209 98
41 18 95 44 120 56 25 12 49 21 54 19 5 -1 8 -58 7 -126z"/>
</g>
</svg>
